# File created by Blade
# Date/Time:  Thu Jan 22 16:00:53 2015
#---------------------------------------------------------
:version 1.10
:name HOM
:units
  mass 1.0
  length 1.000000
  angle deg
:documentation
     Acclaim Skeleton File
:root
   axis xyz
   order TX TY TZ RX RY RZ
   position 0.000000 0.000000 0.000000
   orientation 0 0 0
:bonedata
   begin
      id 1
      name RightUpLeg_dum
      direction -1.000000 0.000000 0.000000
      length 3.766986
      axis 0.0 0.0 0.0 xyz
   end
   begin
      id 2
      name LeftUpLeg_dum
      direction 1.000000 0.000000 0.000000
      length 3.766986
      axis 0.0 0.0 0.0 xyz
   end
   begin
      id 3
      name Spine_dum
      direction 0.000000 1.000000 0.000000
      length 7.779697
      axis 0.0 0.0 0.0 xyz
   end
   begin
      id 4
      name RightUpLeg
      direction 0.000000 -1.000000 0.000000
      length 18.017682
      axis 0.0 0.0 0.0 xyz
      dof rx ry rz
   end
   begin
      id 5
      name RightLeg
      direction 0.000000 -1.000000 0.000000
      length 16.881075
      axis 0.0 0.0 0.0 xyz
      dof rx ry rz
   end
   begin
      id 6
      name RightFoot
      direction 0.000000 -0.258819 0.965926
      length 5.770812
      axis 15.0 0.0 0.0 xyz
      dof rx ry rz
   end
   begin
      id 7
      name RightToeBase
      direction 0.000000 0.000000 1.000000
      length 2.952750
      axis 0.0 0.0 0.0 xyz
      dof rx ry rz
   end
   begin
      id 8
      name LeftUpLeg
      direction 0.000000 -1.000000 0.000000
      length 18.017682
      axis 0.0 0.0 0.0 xyz
      dof rx ry rz
   end
   begin
      id 9
      name LeftLeg
      direction 0.000000 -1.000000 0.000000
      length 16.881075
      axis 0.0 0.0 0.0 xyz
      dof rx ry rz
   end
   begin
      id 10
      name LeftFoot
      direction 0.000000 -0.258819 0.965926
      length 5.770812
      axis 15.0 0.0 0.0 xyz
      dof rx ry rz
   end
   begin
      id 11
      name LeftToeBase
      direction 0.000000 0.000000 1.000000
      length 2.952750
      axis 0.0 0.0 0.0 xyz
      dof rx ry rz
   end
   begin
      id 12
      name Spine
      direction 0.000000 1.000000 0.000000
      length 0.000000
      axis 0.0 0.0 0.0 xyz
      dof rx ry rz
   end
   begin
      id 13
      name Spine_dum1
      direction 0.000000 1.000000 0.000000
      length 10.941760
      axis 0.0 0.0 0.0 xyz
   end
   begin
      id 14
      name Spine_dum2
      direction 0.000000 1.000000 0.000000
      length 10.941760
      axis 0.0 0.0 0.0 xyz
   end
   begin
      id 15
      name Spine_dum3
      direction 0.000000 1.000000 0.000000
      length 16.646042
      axis 0.0 0.0 0.0 xyz
   end
   begin
      id 16
      name RightShoulder
      direction -1.000000 0.000000 0.000000
      length 7.708937
      axis 0.0 0.0 90.0 xyz
      dof rx ry rz
   end
   begin
      id 17
      name RightArm
      direction -1.000000 0.000000 0.000000
      length 11.521345
      axis 0.0 0.0 90.0 xyz
      dof rx ry rz
   end
   begin
      id 18
      name RightForeArm
      direction -1.000000 0.000000 0.000000
      length 10.175898
      axis 0.0 0.0 90.0 xyz
      dof ry rz rx
   end
   begin
      id 19
      name RightHand
      direction -1.000000 0.000000 0.000000
      length 0.000000
      axis 0.0 0.0 90.0 xyz
      dof rx ry rz
   end
   begin
      id 20
      name RightHand_dum1
      direction -1.000000 0.000000 0.000000
      length 3.937000
      axis 0.0 0.0 90.0 xyz
   end
   begin
      id 21
      name RightHand_dum2
      direction 0.000000 0.000000 0.000000
      length 0.000000
      axis 0.0 0.0 90.0 xyz
   end
   begin
      id 22
      name RightHandThumb1
      direction 0.000000 0.000000 1.000000
      length 3.937000
      axis 0.0 0.0 90.0 xyz
      dof rx rz ry
   end
   begin
      id 23
      name LeftShoulder
      direction 1.000000 0.000000 0.000000
      length 7.708937
      axis 0.0 0.0 -90.0 xyz
      dof rx ry rz
   end
   begin
      id 24
      name LeftArm
      direction 1.000000 0.000000 0.000000
      length 11.521345
      axis 0.0 0.0 -90.0 xyz
      dof rx ry rz
   end
   begin
      id 25
      name LeftForeArm
      direction 1.000000 0.000000 0.000000
      length 10.175898
      axis 0.0 0.0 -90.0 xyz
      dof ry rz rx
   end
   begin
      id 26
      name LeftHand
      direction 1.000000 0.000000 0.000000
      length 0.000000
      axis 0.0 0.0 -90.0 xyz
      dof rx ry rz
   end
   begin
      id 27
      name LeftHand_dum1
      direction 1.000000 0.000000 0.000000
      length 3.937000
      axis 0.0 0.0 -90.0 xyz
   end
   begin
      id 28
      name LeftHand_dum2
      direction 0.000000 0.000000 0.000000
      length 0.000000
      axis 0.0 0.0 -90.0 xyz
   end
   begin
      id 29
      name LeftHandThumb1
      direction 0.000000 0.000000 1.000000
      length 3.937000
      axis 0.0 0.0 -90.0 xyz
      dof rx rz ry
   end
   begin
      id 30
      name Head
      direction 0.000000 1.000000 0.000000
      length 4.527550
      axis 0.0 0.0 0.0 xyz
      dof rx ry rz
   end
:hierarchy
   begin
      root RightUpLeg_dum LeftUpLeg_dum Spine_dum
      RightUpLeg_dum RightUpLeg
      LeftUpLeg_dum LeftUpLeg
      Spine_dum Spine
      RightUpLeg RightLeg
      RightLeg RightFoot
      RightFoot RightToeBase
      LeftUpLeg LeftLeg
      LeftLeg LeftFoot
      LeftFoot LeftToeBase
      Spine Spine_dum1 Spine_dum2 Spine_dum3
      Spine_dum1 RightShoulder
      Spine_dum2 LeftShoulder
      Spine_dum3 Head
      RightShoulder RightArm
      RightArm RightForeArm
      RightForeArm RightHand
      RightHand RightHand_dum1 RightHand_dum2
      RightHand_dum2 RightHandThumb1
      LeftShoulder LeftArm
      LeftArm LeftForeArm
      LeftForeArm LeftHand
      LeftHand LeftHand_dum1 LeftHand_dum2
      LeftHand_dum2 LeftHandThumb1
   end

# File created by Blade
# Date/Time:  Thu Jan 22 16:00:44 2015
# Frame Rate: 120.000 fps
#------------------------------------------------------
:FULLY-SPECIFIED
:DEGREES
403
root 3.559348 35.262723 -2.654591 56.010103 -1.385509 -0.467780
RightUpLeg -81.333435 -1.507103 -3.644437
RightLeg 33.441843 -0.000000 -0.000000
RightFoot -15.624852 -12.472216 18.871498
RightToeBase 12.747654 -0.000000 -0.000000
LeftUpLeg -83.851002 0.943910 7.528532
LeftLeg 35.699104 -0.000000 -0.000000
LeftFoot -12.337771 15.189500 -20.217399
LeftToeBase 7.389780 -0.000000 -0.000000
Spine 83.325615 -3.587307 -9.583797
RightShoulder -14.678014 -62.228400 -27.768181
RightArm -16.111267 -1.768001 83.127489
RightForeArm 7.396039 0.000000 4.364221
RightHand -13.366401 -0.000000 43.336807
RightHandThumb1 -24.326973 -0.000000 -32.862282
LeftShoulder -98.384945 64.229374 -59.293907
LeftArm 8.811048 0.224678 -81.786656
LeftForeArm 38.206292 -0.000000 -4.343640
LeftHand -15.296934 -0.000000 -51.540401
LeftHandThumb1 -26.253704 0.000000 33.147579
Head 9.901271 18.732522 -3.844221
404
root 3.558944 35.240509 -2.652816 56.135637 -1.339379 -0.466020
RightUpLeg -81.575474 -1.511316 -3.677265
RightLeg 33.700953 -0.000000 -0.000000
RightFoot -15.770424 -12.478504 18.925231
RightToeBase 12.703199 -0.000000 -0.000000
LeftUpLeg -84.099244 0.997018 7.439078
LeftLeg 35.916309 -0.000000 -0.000000
LeftFoot -12.388128 15.050799 -20.200317
LeftToeBase 7.335477 -0.000000 -0.000000
Spine 83.365207 -3.604020 -9.603723
RightShoulder -14.622518 -62.266569 -27.827104
RightArm -16.187843 -1.854597 83.152983
RightForeArm 7.469140 -0.000000 4.386204
RightHand -13.335069 -0.000000 43.337053
RightHandThumb1 -24.326973 -0.000000 -32.862282
LeftShoulder -98.519765 64.273739 -59.398764
LeftArm 8.808895 0.268521 -81.734699
LeftForeArm 38.171386 0.000000 -4.322528
LeftHand -15.262905 -0.000000 -51.729010
LeftHandThumb1 -26.253704 0.000000 33.147579
Head 9.795617 18.665784 -3.872238
405
root 3.561187 35.220399 -2.651536 56.287170 -1.291312 -0.443282
RightUpLeg -81.848507 -1.547950 -3.711226
RightLeg 33.962471 -0.000000 -0.000000
RightFoot -15.895147 -12.463886 19.002282
RightToeBase 12.691820 -0.000000 -0.000000
LeftUpLeg -84.361837 1.024963 7.346568
LeftLeg 36.106671 -0.000000 -0.000000
LeftFoot -12.432293 14.918151 -20.199782
LeftToeBase 7.350508 -0.000000 -0.000000
Spine 83.401146 -3.680158 -9.660267
RightShoulder -14.577571 -62.302658 -27.905240
RightArm -16.220837 -1.887105 83.158436
RightForeArm 7.493156 -0.000000 4.388009
RightHand -13.390919 0.000000 43.338774
RightHandThumb1 -24.326973 -0.000000 -32.862282
LeftShoulder -98.286030 64.288581 -59.145466
LeftArm 8.665282 0.383077 -81.658103
LeftForeArm 38.140968 0.000000 -4.333998
LeftHand -15.236628 -0.000000 -51.678121
LeftHandThumb1 -26.253704 0.000000 33.147579
Head 9.622610 18.711208 -3.966000
406
root 3.562448 35.201469 -2.646462 56.402084 -1.232636 -0.424931
RightUpLeg -82.068208 -1.591084 -3.707470
RightLeg 34.206925 -0.000000 -0.000000
RightFoot -16.023170 -12.442270 19.048725
RightToeBase 12.637822 -0.000000 -0.000000
LeftUpLeg -84.589618 1.048779 7.261598
LeftLeg 36.305256 -0.000000 -0.000000
LeftFoot -12.468016 14.791360 -20.187881
LeftToeBase 7.278583 -0.000000 -0.000000
Spine 83.477720 -3.706796 -9.711346
RightShoulder -14.573994 -62.430468 -27.883573
RightArm -16.140844 -1.894237 83.146298
RightForeArm 7.474695 -0.000000 4.382636
RightHand -13.340033 -0.000000 43.420778
RightHandThumb1 -24.326973 -0.000000 -32.862282
LeftShoulder -98.353696 64.304412 -59.191949
LeftArm 8.636836 0.411182 -81.639603
LeftForeArm 38.129837 0.000000 -4.302297
LeftHand -15.312042 -0.000000 -51.717766
LeftHandThumb1 -26.253704 0.000000 33.147579
Head 9.475967 18.714002 -3.914094
407
root 3.565779 35.183352 -2.641556 56.508987 -1.186194 -0.374184
RightUpLeg -82.279465 -1.640124 -3.772248
RightLeg 34.450523 -0.000000 -0.000000
RightFoot -16.143774 -12.462631 19.046308
RightToeBase 12.548961 -0.000000 -0.000000
LeftUpLeg -84.803873 1.043774 7.158854
LeftLeg 36.487984 -0.000000 -0.000000
LeftFoot -12.496301 14.669889 -20.219036
LeftToeBase 7.228463 -0.000000 -0.000000
Spine 83.563709 -3.732189 -9.716483
RightShoulder -14.671297 -62.406598 -27.768058
RightArm -16.240465 -1.936012 83.124456
RightForeArm 7.544181 -0.000000 4.375968
RightHand -13.350044 -0.000000 43.359596
RightHandThumb1 -24.326973 -0.000000 -32.862282
LeftShoulder -98.790463 64.313067 -59.684116
LeftArm 8.820160 0.326900 -81.581260
LeftForeArm 38.171173 -0.000000 -4.243521
LeftHand -15.287598 -0.000000 -51.697215
LeftHandThumb1 -26.253704 0.000000 33.147579
Head 9.304883 18.648412 -3.851518
